<svg xmlns="http://www.w3.org/2000/svg" viewBox="0 0 64 64">
  <defs>
    <linearGradient id="mangoSkin" x1="14" y1="52" x2="50" y2="10" gradientUnits="userSpaceOnUse">
      <stop offset="0" stop-color="#ef3f3f"/>
      <stop offset="0.42" stop-color="#f98b30"/>
      <stop offset="0.72" stop-color="#ffd05a"/>
      <stop offset="1" stop-color="#5fbf62"/>
    </linearGradient>
    <radialGradient id="gloss" cx="35%" cy="28%" r="45%">
      <stop offset="0" stop-color="#fff8cf" stop-opacity="0.95"/>
      <stop offset="0.45" stop-color="#fff8cf" stop-opacity="0.42"/>
      <stop offset="1" stop-color="#fff8cf" stop-opacity="0"/>
    </radialGradient>
    <filter id="softShadow" x="-20%" y="-20%" width="140%" height="140%">
      <feDropShadow dx="0" dy="3" stdDeviation="2" flood-color="#873114" flood-opacity="0.28"/>
    </filter>
  </defs>

  <path
    d="M43.7 4.5c-4.2.7-8.1 3-10.8 6.4 4.7 1.2 9.6-.5 12.8-4.2 1.3-1.5.6-2.6-2-2.2Z"
    fill="#3fa657"
  />
  <path
    d="M35.4 10.6c2.8-3 4.5-6.4 4.8-9"
    fill="none"
    stroke="#236c3c"
    stroke-linecap="round"
    stroke-width="2.3"
  />
  <path
    d="M31.7 8.1c10.7.2 21.1 9.6 21.1 21.3 0 15.4-12.7 28.7-27.2 28.7C15 58.1 8.8 51.6 8.8 42c0-17.6 9.6-34.2 22.9-33.9Z"
    fill="url(#mangoSkin)"
    filter="url(#softShadow)"
  />
  <path
    d="M31.7 8.1c10.7.2 21.1 9.6 21.1 21.3 0 15.4-12.7 28.7-27.2 28.7C15 58.1 8.8 51.6 8.8 42c0-17.6 9.6-34.2 22.9-33.9Z"
    fill="url(#gloss)"
  />
  <path
    d="M22.5 15.6c-5.5 4.8-9.1 14.5-9.1 24.4 0 7.7 4.9 12.5 13.1 12.5"
    fill="none"
    stroke="#b82732"
    stroke-linecap="round"
    stroke-opacity="0.28"
    stroke-width="3"
  />
  <ellipse cx="25" cy="23" rx="7.4" ry="4.5" fill="#fffbd7" opacity="0.46" transform="rotate(-32 25 23)"/>
</svg>
